<mxfile host="Electron" agent="Mozilla/5.0 (Windows NT 10.0; Win64; x64) AppleWebKit/537.36 (KHTML, like Gecko) draw.io/26.2.2 Chrome/134.0.6998.178 Electron/35.1.2 Safari/537.36" version="26.2.2">
  <diagram name="Page-1" id="1vLe2R8yxRY9J3RcYaxB">
    <mxGraphModel dx="1329" dy="2293" grid="1" gridSize="10" guides="1" tooltips="1" connect="1" arrows="1" fold="1" page="1" pageScale="1" pageWidth="827" pageHeight="1169" math="0" shadow="0">
      <root>
        <mxCell id="0" />
        <mxCell id="1" parent="0" />
        <mxCell id="v58KR91fX-0rc_-lzw3H-133" value="" style="shape=folder;fontStyle=1;spacingTop=10;tabWidth=180;tabHeight=40;tabPosition=left;html=1;whiteSpace=wrap;" vertex="1" parent="1">
          <mxGeometry x="570" y="-800" width="900" height="457.5" as="geometry" />
        </mxCell>
        <mxCell id="v58KR91fX-0rc_-lzw3H-134" value="&lt;div&gt;Visitor&lt;/div&gt;" style="shape=umlActor;verticalLabelPosition=bottom;verticalAlign=top;html=1;outlineConnect=0;" vertex="1" parent="1">
          <mxGeometry x="340" y="-519.5" width="30" height="59" as="geometry" />
        </mxCell>
        <mxCell id="v58KR91fX-0rc_-lzw3H-135" value="" style="endArrow=none;html=1;rounded=0;entryX=0;entryY=0.5;entryDx=0;entryDy=0;" edge="1" parent="1" source="v58KR91fX-0rc_-lzw3H-134" target="v58KR91fX-0rc_-lzw3H-146">
          <mxGeometry relative="1" as="geometry">
            <mxPoint x="406" y="-479.5" as="sourcePoint" />
            <mxPoint x="661" y="-610.5" as="targetPoint" />
          </mxGeometry>
        </mxCell>
        <mxCell id="v58KR91fX-0rc_-lzw3H-136" value="*" style="resizable=0;html=1;whiteSpace=wrap;align=right;verticalAlign=bottom;" connectable="0" vertex="1" parent="v58KR91fX-0rc_-lzw3H-135">
          <mxGeometry x="1" relative="1" as="geometry" />
        </mxCell>
        <mxCell id="v58KR91fX-0rc_-lzw3H-137" value="*" style="text;html=1;align=center;verticalAlign=middle;resizable=0;points=[];autosize=1;strokeColor=none;fillColor=none;" vertex="1" parent="1">
          <mxGeometry x="365" y="-521.5" width="30" height="30" as="geometry" />
        </mxCell>
        <mxCell id="v58KR91fX-0rc_-lzw3H-138" value="Contact support" style="shape=ellipse;" vertex="1" parent="1">
          <mxGeometry x="960" y="-663.5" width="120" height="39" as="geometry" />
        </mxCell>
        <mxCell id="v58KR91fX-0rc_-lzw3H-139" value="N...." style="text;html=1;align=center;verticalAlign=middle;resizable=0;points=[];autosize=1;strokeColor=none;fillColor=none;" vertex="1" parent="1">
          <mxGeometry x="900.75" y="-663.5" width="50" height="30" as="geometry" />
        </mxCell>
        <mxCell id="v58KR91fX-0rc_-lzw3H-140" value="View testimonials" style="shape=ellipse;" vertex="1" parent="1">
          <mxGeometry x="1210.75" y="-469.5" width="130" height="49" as="geometry" />
        </mxCell>
        <mxCell id="v58KR91fX-0rc_-lzw3H-141" value="View FAQ section" style="shape=ellipse;" vertex="1" parent="1">
          <mxGeometry x="1046" y="-558.5" width="130" height="49" as="geometry" />
        </mxCell>
        <mxCell id="v58KR91fX-0rc_-lzw3H-142" value="View &#39;About Us&#39; page" style="shape=ellipse;" vertex="1" parent="1">
          <mxGeometry x="1240.75" y="-539.5" width="150" height="49" as="geometry" />
        </mxCell>
        <mxCell id="v58KR91fX-0rc_-lzw3H-143" value="Report inappropriate content" style="shape=ellipse;" vertex="1" parent="1">
          <mxGeometry x="1230" y="-692.5" width="180" height="59" as="geometry" />
        </mxCell>
        <mxCell id="v58KR91fX-0rc_-lzw3H-144" value="Search for specific Category" style="shape=ellipse;" vertex="1" parent="1">
          <mxGeometry x="1200.75" y="-599.5" width="184.25" height="50" as="geometry" />
        </mxCell>
        <mxCell id="v58KR91fX-0rc_-lzw3H-145" value="View item details" style="shape=ellipse;" vertex="1" parent="1">
          <mxGeometry x="1090.75" y="-633.5" width="120" height="39" as="geometry" />
        </mxCell>
        <mxCell id="v58KR91fX-0rc_-lzw3H-146" value="Browse available gifts" style="shape=ellipse;" vertex="1" parent="1">
          <mxGeometry x="628.25" y="-659.5" width="190" height="49" as="geometry" />
        </mxCell>
        <mxCell id="v58KR91fX-0rc_-lzw3H-147" value="Search for specific items" style="shape=ellipse;" vertex="1" parent="1">
          <mxGeometry x="921.75" y="-509.5" width="150" height="49" as="geometry" />
        </mxCell>
        <mxCell id="v58KR91fX-0rc_-lzw3H-148" value="" style="endArrow=none;html=1;rounded=0;entryX=0;entryY=0.5;entryDx=0;entryDy=0;" edge="1" parent="1" source="v58KR91fX-0rc_-lzw3H-134" target="v58KR91fX-0rc_-lzw3H-143">
          <mxGeometry relative="1" as="geometry">
            <mxPoint x="430" y="-430.5" as="sourcePoint" />
            <mxPoint x="645" y="-481.5" as="targetPoint" />
          </mxGeometry>
        </mxCell>
        <mxCell id="v58KR91fX-0rc_-lzw3H-149" value="*" style="resizable=0;html=1;whiteSpace=wrap;align=right;verticalAlign=bottom;" connectable="0" vertex="1" parent="v58KR91fX-0rc_-lzw3H-148">
          <mxGeometry x="1" relative="1" as="geometry" />
        </mxCell>
        <mxCell id="v58KR91fX-0rc_-lzw3H-150" value="" style="endArrow=none;html=1;rounded=0;entryX=0;entryY=0.5;entryDx=0;entryDy=0;" edge="1" parent="1" source="v58KR91fX-0rc_-lzw3H-134" target="v58KR91fX-0rc_-lzw3H-147">
          <mxGeometry relative="1" as="geometry">
            <mxPoint x="390" y="-473.5" as="sourcePoint" />
            <mxPoint x="605" y="-524.5" as="targetPoint" />
          </mxGeometry>
        </mxCell>
        <mxCell id="v58KR91fX-0rc_-lzw3H-151" value="*" style="resizable=0;html=1;whiteSpace=wrap;align=right;verticalAlign=bottom;" connectable="0" vertex="1" parent="v58KR91fX-0rc_-lzw3H-150">
          <mxGeometry x="1" relative="1" as="geometry" />
        </mxCell>
        <mxCell id="v58KR91fX-0rc_-lzw3H-152" value="" style="endArrow=none;html=1;rounded=0;entryX=0;entryY=0.5;entryDx=0;entryDy=0;" edge="1" parent="1" source="v58KR91fX-0rc_-lzw3H-134" target="v58KR91fX-0rc_-lzw3H-140">
          <mxGeometry relative="1" as="geometry">
            <mxPoint x="400" y="-463.5" as="sourcePoint" />
            <mxPoint x="615" y="-514.5" as="targetPoint" />
          </mxGeometry>
        </mxCell>
        <mxCell id="v58KR91fX-0rc_-lzw3H-153" value="*" style="resizable=0;html=1;whiteSpace=wrap;align=right;verticalAlign=bottom;" connectable="0" vertex="1" parent="v58KR91fX-0rc_-lzw3H-152">
          <mxGeometry x="1" relative="1" as="geometry" />
        </mxCell>
        <mxCell id="v58KR91fX-0rc_-lzw3H-154" value="" style="endArrow=none;html=1;rounded=0;entryX=0;entryY=0.5;entryDx=0;entryDy=0;" edge="1" parent="1" source="v58KR91fX-0rc_-lzw3H-134" target="v58KR91fX-0rc_-lzw3H-138">
          <mxGeometry relative="1" as="geometry">
            <mxPoint x="410" y="-453.5" as="sourcePoint" />
            <mxPoint x="625" y="-504.5" as="targetPoint" />
          </mxGeometry>
        </mxCell>
        <mxCell id="v58KR91fX-0rc_-lzw3H-155" value="*" style="resizable=0;html=1;whiteSpace=wrap;align=right;verticalAlign=bottom;" connectable="0" vertex="1" parent="v58KR91fX-0rc_-lzw3H-154">
          <mxGeometry x="1" relative="1" as="geometry" />
        </mxCell>
        <mxCell id="v58KR91fX-0rc_-lzw3H-156" value="" style="endArrow=none;html=1;rounded=0;entryX=0;entryY=0.5;entryDx=0;entryDy=0;" edge="1" parent="1" source="v58KR91fX-0rc_-lzw3H-134" target="v58KR91fX-0rc_-lzw3H-141">
          <mxGeometry relative="1" as="geometry">
            <mxPoint x="420" y="-443.5" as="sourcePoint" />
            <mxPoint x="635" y="-494.5" as="targetPoint" />
          </mxGeometry>
        </mxCell>
        <mxCell id="v58KR91fX-0rc_-lzw3H-157" value="*" style="resizable=0;html=1;whiteSpace=wrap;align=right;verticalAlign=bottom;" connectable="0" vertex="1" parent="v58KR91fX-0rc_-lzw3H-156">
          <mxGeometry x="1" relative="1" as="geometry" />
        </mxCell>
        <mxCell id="v58KR91fX-0rc_-lzw3H-158" value="" style="endArrow=none;html=1;rounded=0;entryX=0;entryY=0.5;entryDx=0;entryDy=0;" edge="1" parent="1" source="v58KR91fX-0rc_-lzw3H-134" target="v58KR91fX-0rc_-lzw3H-145">
          <mxGeometry relative="1" as="geometry">
            <mxPoint x="430" y="-433.5" as="sourcePoint" />
            <mxPoint x="645" y="-484.5" as="targetPoint" />
          </mxGeometry>
        </mxCell>
        <mxCell id="v58KR91fX-0rc_-lzw3H-159" value="*" style="resizable=0;html=1;whiteSpace=wrap;align=right;verticalAlign=bottom;" connectable="0" vertex="1" parent="v58KR91fX-0rc_-lzw3H-158">
          <mxGeometry x="1" relative="1" as="geometry" />
        </mxCell>
        <mxCell id="v58KR91fX-0rc_-lzw3H-160" value="" style="endArrow=none;html=1;rounded=0;entryX=0;entryY=0.5;entryDx=0;entryDy=0;" edge="1" parent="1" source="v58KR91fX-0rc_-lzw3H-134" target="v58KR91fX-0rc_-lzw3H-142">
          <mxGeometry relative="1" as="geometry">
            <mxPoint x="440" y="-423.5" as="sourcePoint" />
            <mxPoint x="655" y="-474.5" as="targetPoint" />
          </mxGeometry>
        </mxCell>
        <mxCell id="v58KR91fX-0rc_-lzw3H-161" value="*" style="resizable=0;html=1;whiteSpace=wrap;align=right;verticalAlign=bottom;" connectable="0" vertex="1" parent="v58KR91fX-0rc_-lzw3H-160">
          <mxGeometry x="1" relative="1" as="geometry" />
        </mxCell>
        <mxCell id="v58KR91fX-0rc_-lzw3H-162" value="" style="endArrow=none;html=1;rounded=0;entryX=0;entryY=0.5;entryDx=0;entryDy=0;" edge="1" parent="1" source="v58KR91fX-0rc_-lzw3H-134" target="v58KR91fX-0rc_-lzw3H-144">
          <mxGeometry relative="1" as="geometry">
            <mxPoint x="450" y="-413.5" as="sourcePoint" />
            <mxPoint x="665" y="-464.5" as="targetPoint" />
          </mxGeometry>
        </mxCell>
        <mxCell id="v58KR91fX-0rc_-lzw3H-163" value="*" style="resizable=0;html=1;whiteSpace=wrap;align=right;verticalAlign=bottom;" connectable="0" vertex="1" parent="v58KR91fX-0rc_-lzw3H-162">
          <mxGeometry x="1" relative="1" as="geometry" />
        </mxCell>
        <mxCell id="v58KR91fX-0rc_-lzw3H-164" value="Register an account" style="shape=ellipse;" vertex="1" parent="1">
          <mxGeometry x="900.24" y="-420.5" width="140" height="59" as="geometry" />
        </mxCell>
        <mxCell id="v58KR91fX-0rc_-lzw3H-165" value="Forgot Password" style="shape=ellipse;" vertex="1" parent="1">
          <mxGeometry x="1090.75" y="-414.87000000000046" width="120" height="47.75" as="geometry" />
        </mxCell>
        <mxCell id="v58KR91fX-0rc_-lzw3H-166" value="N" style="resizable=0;html=1;whiteSpace=wrap;align=right;verticalAlign=bottom;" connectable="0" vertex="1" parent="1">
          <mxGeometry x="1099.9973231200856" y="-409.99723436671565" as="geometry" />
        </mxCell>
        <mxCell id="v58KR91fX-0rc_-lzw3H-167" value="1" style="resizable=0;html=1;whiteSpace=wrap;align=right;verticalAlign=bottom;" connectable="0" vertex="1" parent="1">
          <mxGeometry x="900.2418958581309" y="-409.9975525002349" as="geometry" />
        </mxCell>
        <mxCell id="v58KR91fX-0rc_-lzw3H-168" value="Log In" style="shape=ellipse;" vertex="1" parent="1">
          <mxGeometry x="700" y="-420.5" width="100" height="50" as="geometry" />
        </mxCell>
        <mxCell id="v58KR91fX-0rc_-lzw3H-169" value="" style="resizable=0;html=1;whiteSpace=wrap;align=right;verticalAlign=bottom;" connectable="0" vertex="1" parent="1">
          <mxGeometry x="910.2418958581309" y="-399.9975525002349" as="geometry">
            <mxPoint x="-199" y="-23" as="offset" />
          </mxGeometry>
        </mxCell>
        <mxCell id="v58KR91fX-0rc_-lzw3H-170" value="" style="endArrow=none;html=1;rounded=0;" edge="1" parent="1" source="v58KR91fX-0rc_-lzw3H-134" target="v58KR91fX-0rc_-lzw3H-168">
          <mxGeometry relative="1" as="geometry">
            <mxPoint x="380" y="-488" as="sourcePoint" />
            <mxPoint x="638" y="-625" as="targetPoint" />
          </mxGeometry>
        </mxCell>
        <mxCell id="v58KR91fX-0rc_-lzw3H-171" value="1" style="resizable=0;html=1;whiteSpace=wrap;align=right;verticalAlign=bottom;" connectable="0" vertex="1" parent="v58KR91fX-0rc_-lzw3H-170">
          <mxGeometry x="1" relative="1" as="geometry" />
        </mxCell>
        <mxCell id="v58KR91fX-0rc_-lzw3H-172" value="" style="endArrow=none;html=1;rounded=0;" edge="1" parent="1" source="v58KR91fX-0rc_-lzw3H-134" target="v58KR91fX-0rc_-lzw3H-164">
          <mxGeometry relative="1" as="geometry">
            <mxPoint x="450" y="-320" as="sourcePoint" />
            <mxPoint x="710" y="-397" as="targetPoint" />
          </mxGeometry>
        </mxCell>
        <mxCell id="v58KR91fX-0rc_-lzw3H-173" value="" style="resizable=0;html=1;whiteSpace=wrap;align=right;verticalAlign=bottom;" connectable="0" vertex="1" parent="v58KR91fX-0rc_-lzw3H-172">
          <mxGeometry x="1" relative="1" as="geometry" />
        </mxCell>
        <mxCell id="v58KR91fX-0rc_-lzw3H-174" value="" style="endArrow=none;html=1;rounded=0;" edge="1" parent="1" source="v58KR91fX-0rc_-lzw3H-134" target="v58KR91fX-0rc_-lzw3H-165">
          <mxGeometry relative="1" as="geometry">
            <mxPoint x="390" y="-466" as="sourcePoint" />
            <mxPoint x="720" y="-387" as="targetPoint" />
          </mxGeometry>
        </mxCell>
        <mxCell id="v58KR91fX-0rc_-lzw3H-175" value="" style="resizable=0;html=1;whiteSpace=wrap;align=right;verticalAlign=bottom;" connectable="0" vertex="1" parent="v58KR91fX-0rc_-lzw3H-174">
          <mxGeometry x="1" relative="1" as="geometry" />
        </mxCell>
        <mxCell id="v58KR91fX-0rc_-lzw3H-179" value="&lt;font style=&quot;font-size: 24px;&quot;&gt;Visitor&lt;/font&gt;" style="text;html=1;align=center;verticalAlign=middle;resizable=0;points=[];autosize=1;strokeColor=none;fillColor=none;" vertex="1" parent="1">
          <mxGeometry x="610" y="-800" width="90" height="40" as="geometry" />
        </mxCell>
        <mxCell id="v58KR91fX-0rc_-lzw3H-181" value="" style="shape=folder;fontStyle=1;spacingTop=10;tabWidth=180;tabHeight=40;tabPosition=left;html=1;whiteSpace=wrap;" vertex="1" parent="1">
          <mxGeometry x="576" y="-130" width="1164" height="1070" as="geometry" />
        </mxCell>
        <mxCell id="v58KR91fX-0rc_-lzw3H-182" value="" style="shape=umlActor;verticalLabelPosition=bottom;verticalAlign=top;html=1;outlineConnect=0;" vertex="1" parent="1">
          <mxGeometry x="360.75" y="150.5" width="30" height="59" as="geometry" />
        </mxCell>
        <mxCell id="v58KR91fX-0rc_-lzw3H-183" value="" style="endArrow=none;html=1;rounded=0;entryX=0;entryY=0.5;entryDx=0;entryDy=0;" edge="1" parent="1" source="v58KR91fX-0rc_-lzw3H-182" target="v58KR91fX-0rc_-lzw3H-194">
          <mxGeometry relative="1" as="geometry">
            <mxPoint x="426.75" y="190.5" as="sourcePoint" />
            <mxPoint x="681.75" y="59.5" as="targetPoint" />
          </mxGeometry>
        </mxCell>
        <mxCell id="v58KR91fX-0rc_-lzw3H-184" value="*" style="resizable=0;html=1;whiteSpace=wrap;align=right;verticalAlign=bottom;" connectable="0" vertex="1" parent="v58KR91fX-0rc_-lzw3H-183">
          <mxGeometry x="1" relative="1" as="geometry" />
        </mxCell>
        <mxCell id="v58KR91fX-0rc_-lzw3H-185" value="*" style="text;html=1;align=center;verticalAlign=middle;resizable=0;points=[];autosize=1;strokeColor=none;fillColor=none;" vertex="1" parent="1">
          <mxGeometry x="385.75" y="148.5" width="30" height="30" as="geometry" />
        </mxCell>
        <mxCell id="v58KR91fX-0rc_-lzw3H-186" value="Contact support" style="shape=ellipse;" vertex="1" parent="1">
          <mxGeometry x="980.75" y="6.5" width="120" height="39" as="geometry" />
        </mxCell>
        <mxCell id="v58KR91fX-0rc_-lzw3H-187" value="N...." style="text;html=1;align=center;verticalAlign=middle;resizable=0;points=[];autosize=1;strokeColor=none;fillColor=none;" vertex="1" parent="1">
          <mxGeometry x="921.5" y="6.5" width="50" height="30" as="geometry" />
        </mxCell>
        <mxCell id="v58KR91fX-0rc_-lzw3H-188" value="View testimonials" style="shape=ellipse;" vertex="1" parent="1">
          <mxGeometry x="1231.5" y="200.5" width="130" height="49" as="geometry" />
        </mxCell>
        <mxCell id="v58KR91fX-0rc_-lzw3H-189" value="View FAQ section" style="shape=ellipse;" vertex="1" parent="1">
          <mxGeometry x="1066.75" y="111.5" width="130" height="49" as="geometry" />
        </mxCell>
        <mxCell id="v58KR91fX-0rc_-lzw3H-190" value="View &#39;About Us&#39; page" style="shape=ellipse;" vertex="1" parent="1">
          <mxGeometry x="1261.5" y="130.5" width="150" height="49" as="geometry" />
        </mxCell>
        <mxCell id="v58KR91fX-0rc_-lzw3H-191" value="Report inappropriate content" style="shape=ellipse;" vertex="1" parent="1">
          <mxGeometry x="1250.75" y="-22.5" width="180" height="59" as="geometry" />
        </mxCell>
        <mxCell id="v58KR91fX-0rc_-lzw3H-192" value="Search for specific Category" style="shape=ellipse;" vertex="1" parent="1">
          <mxGeometry x="1221.5" y="70.5" width="184.25" height="50" as="geometry" />
        </mxCell>
        <mxCell id="v58KR91fX-0rc_-lzw3H-193" value="View item details" style="shape=ellipse;" vertex="1" parent="1">
          <mxGeometry x="1111.5" y="36.5" width="120" height="39" as="geometry" />
        </mxCell>
        <mxCell id="v58KR91fX-0rc_-lzw3H-194" value="Browse available gifts" style="shape=ellipse;" vertex="1" parent="1">
          <mxGeometry x="649" y="10.5" width="190" height="49" as="geometry" />
        </mxCell>
        <mxCell id="v58KR91fX-0rc_-lzw3H-195" value="Search for specific items" style="shape=ellipse;" vertex="1" parent="1">
          <mxGeometry x="942.5" y="160.5" width="150" height="49" as="geometry" />
        </mxCell>
        <mxCell id="v58KR91fX-0rc_-lzw3H-196" value="" style="endArrow=none;html=1;rounded=0;entryX=0;entryY=0.5;entryDx=0;entryDy=0;" edge="1" parent="1" source="v58KR91fX-0rc_-lzw3H-182" target="v58KR91fX-0rc_-lzw3H-191">
          <mxGeometry relative="1" as="geometry">
            <mxPoint x="450.75" y="239.5" as="sourcePoint" />
            <mxPoint x="665.75" y="188.5" as="targetPoint" />
          </mxGeometry>
        </mxCell>
        <mxCell id="v58KR91fX-0rc_-lzw3H-197" value="*" style="resizable=0;html=1;whiteSpace=wrap;align=right;verticalAlign=bottom;" connectable="0" vertex="1" parent="v58KR91fX-0rc_-lzw3H-196">
          <mxGeometry x="1" relative="1" as="geometry" />
        </mxCell>
        <mxCell id="v58KR91fX-0rc_-lzw3H-198" value="" style="endArrow=none;html=1;rounded=0;entryX=0;entryY=0.5;entryDx=0;entryDy=0;" edge="1" parent="1" source="v58KR91fX-0rc_-lzw3H-182" target="v58KR91fX-0rc_-lzw3H-195">
          <mxGeometry relative="1" as="geometry">
            <mxPoint x="410.75" y="196.5" as="sourcePoint" />
            <mxPoint x="625.75" y="145.5" as="targetPoint" />
          </mxGeometry>
        </mxCell>
        <mxCell id="v58KR91fX-0rc_-lzw3H-199" value="*" style="resizable=0;html=1;whiteSpace=wrap;align=right;verticalAlign=bottom;" connectable="0" vertex="1" parent="v58KR91fX-0rc_-lzw3H-198">
          <mxGeometry x="1" relative="1" as="geometry" />
        </mxCell>
        <mxCell id="v58KR91fX-0rc_-lzw3H-200" value="" style="endArrow=none;html=1;rounded=0;entryX=0;entryY=0.5;entryDx=0;entryDy=0;" edge="1" parent="1" source="v58KR91fX-0rc_-lzw3H-182" target="v58KR91fX-0rc_-lzw3H-188">
          <mxGeometry relative="1" as="geometry">
            <mxPoint x="420.75" y="206.5" as="sourcePoint" />
            <mxPoint x="635.75" y="155.5" as="targetPoint" />
          </mxGeometry>
        </mxCell>
        <mxCell id="v58KR91fX-0rc_-lzw3H-201" value="*" style="resizable=0;html=1;whiteSpace=wrap;align=right;verticalAlign=bottom;" connectable="0" vertex="1" parent="v58KR91fX-0rc_-lzw3H-200">
          <mxGeometry x="1" relative="1" as="geometry" />
        </mxCell>
        <mxCell id="v58KR91fX-0rc_-lzw3H-202" value="" style="endArrow=none;html=1;rounded=0;entryX=0;entryY=0.5;entryDx=0;entryDy=0;" edge="1" parent="1" source="v58KR91fX-0rc_-lzw3H-182" target="v58KR91fX-0rc_-lzw3H-186">
          <mxGeometry relative="1" as="geometry">
            <mxPoint x="430.75" y="216.5" as="sourcePoint" />
            <mxPoint x="645.75" y="165.5" as="targetPoint" />
          </mxGeometry>
        </mxCell>
        <mxCell id="v58KR91fX-0rc_-lzw3H-203" value="*" style="resizable=0;html=1;whiteSpace=wrap;align=right;verticalAlign=bottom;" connectable="0" vertex="1" parent="v58KR91fX-0rc_-lzw3H-202">
          <mxGeometry x="1" relative="1" as="geometry" />
        </mxCell>
        <mxCell id="v58KR91fX-0rc_-lzw3H-204" value="" style="endArrow=none;html=1;rounded=0;entryX=0;entryY=0.5;entryDx=0;entryDy=0;" edge="1" parent="1" source="v58KR91fX-0rc_-lzw3H-182" target="v58KR91fX-0rc_-lzw3H-189">
          <mxGeometry relative="1" as="geometry">
            <mxPoint x="440.75" y="226.5" as="sourcePoint" />
            <mxPoint x="655.75" y="175.5" as="targetPoint" />
          </mxGeometry>
        </mxCell>
        <mxCell id="v58KR91fX-0rc_-lzw3H-205" value="*" style="resizable=0;html=1;whiteSpace=wrap;align=right;verticalAlign=bottom;" connectable="0" vertex="1" parent="v58KR91fX-0rc_-lzw3H-204">
          <mxGeometry x="1" relative="1" as="geometry" />
        </mxCell>
        <mxCell id="v58KR91fX-0rc_-lzw3H-206" value="" style="endArrow=none;html=1;rounded=0;entryX=0;entryY=0.5;entryDx=0;entryDy=0;" edge="1" parent="1" source="v58KR91fX-0rc_-lzw3H-182" target="v58KR91fX-0rc_-lzw3H-193">
          <mxGeometry relative="1" as="geometry">
            <mxPoint x="450.75" y="236.5" as="sourcePoint" />
            <mxPoint x="665.75" y="185.5" as="targetPoint" />
          </mxGeometry>
        </mxCell>
        <mxCell id="v58KR91fX-0rc_-lzw3H-207" value="*" style="resizable=0;html=1;whiteSpace=wrap;align=right;verticalAlign=bottom;" connectable="0" vertex="1" parent="v58KR91fX-0rc_-lzw3H-206">
          <mxGeometry x="1" relative="1" as="geometry" />
        </mxCell>
        <mxCell id="v58KR91fX-0rc_-lzw3H-208" value="" style="endArrow=none;html=1;rounded=0;entryX=0;entryY=0.5;entryDx=0;entryDy=0;" edge="1" parent="1" source="v58KR91fX-0rc_-lzw3H-182" target="v58KR91fX-0rc_-lzw3H-190">
          <mxGeometry relative="1" as="geometry">
            <mxPoint x="460.75" y="246.5" as="sourcePoint" />
            <mxPoint x="675.75" y="195.5" as="targetPoint" />
          </mxGeometry>
        </mxCell>
        <mxCell id="v58KR91fX-0rc_-lzw3H-209" value="*" style="resizable=0;html=1;whiteSpace=wrap;align=right;verticalAlign=bottom;" connectable="0" vertex="1" parent="v58KR91fX-0rc_-lzw3H-208">
          <mxGeometry x="1" relative="1" as="geometry" />
        </mxCell>
        <mxCell id="v58KR91fX-0rc_-lzw3H-210" value="" style="endArrow=none;html=1;rounded=0;entryX=0;entryY=0.5;entryDx=0;entryDy=0;" edge="1" parent="1" source="v58KR91fX-0rc_-lzw3H-182" target="v58KR91fX-0rc_-lzw3H-192">
          <mxGeometry relative="1" as="geometry">
            <mxPoint x="470.75" y="256.5" as="sourcePoint" />
            <mxPoint x="685.75" y="205.5" as="targetPoint" />
          </mxGeometry>
        </mxCell>
        <mxCell id="v58KR91fX-0rc_-lzw3H-211" value="*" style="resizable=0;html=1;whiteSpace=wrap;align=right;verticalAlign=bottom;" connectable="0" vertex="1" parent="v58KR91fX-0rc_-lzw3H-210">
          <mxGeometry x="1" relative="1" as="geometry" />
        </mxCell>
        <mxCell id="v58KR91fX-0rc_-lzw3H-224" value="&lt;font style=&quot;font-size: 24px;&quot;&gt;User&lt;/font&gt;" style="text;html=1;align=center;verticalAlign=middle;resizable=0;points=[];autosize=1;strokeColor=none;fillColor=none;" vertex="1" parent="1">
          <mxGeometry x="628.25" y="-130" width="70" height="40" as="geometry" />
        </mxCell>
        <mxCell id="v58KR91fX-0rc_-lzw3H-225" value="User" style="shape=umlActor;verticalLabelPosition=bottom;verticalAlign=top;html=1;outlineConnect=0;" vertex="1" parent="1">
          <mxGeometry x="360.75" y="147.99999999999983" width="30" height="61.5" as="geometry" />
        </mxCell>
        <mxCell id="v58KR91fX-0rc_-lzw3H-226" value="Post a new gift " style="shape=ellipse;" vertex="1" parent="1">
          <mxGeometry x="618.9999999999992" y="457.18000000000006" width="130" height="39" as="geometry" />
        </mxCell>
        <mxCell id="v58KR91fX-0rc_-lzw3H-227" value="Request a gift" style="shape=ellipse;" vertex="1" parent="1">
          <mxGeometry x="618.9999999999992" y="761.1800000000001" width="120" height="39" as="geometry" />
        </mxCell>
        <mxCell id="v58KR91fX-0rc_-lzw3H-228" value="Accept a gift request" style="shape=ellipse;" vertex="1" parent="1">
          <mxGeometry x="631.4999999999992" y="700" width="140" height="49" as="geometry" />
        </mxCell>
        <mxCell id="v58KR91fX-0rc_-lzw3H-229" value="View received requests" style="shape=ellipse;" vertex="1" parent="1">
          <mxGeometry x="788.9999999999992" y="721.6800000000001" width="140" height="49" as="geometry" />
        </mxCell>
        <mxCell id="v58KR91fX-0rc_-lzw3H-230" value="Edit profile information" style="shape=ellipse;" vertex="1" parent="1">
          <mxGeometry x="1412.999999999999" y="457.18000000000006" width="150" height="44" as="geometry" />
        </mxCell>
        <mxCell id="v58KR91fX-0rc_-lzw3H-231" value="Edit existing gift listings" style="shape=ellipse;" vertex="1" parent="1">
          <mxGeometry x="1513.749999999999" y="640" width="140" height="54" as="geometry" />
        </mxCell>
        <mxCell id="v58KR91fX-0rc_-lzw3H-232" value="View personal dashboard" style="shape=ellipse;" vertex="1" parent="1">
          <mxGeometry x="1478.999999999999" y="530" width="150" height="59" as="geometry" />
        </mxCell>
        <mxCell id="v58KR91fX-0rc_-lzw3H-233" value="Log out" style="shape=ellipse;" vertex="1" parent="1">
          <mxGeometry x="1547.749999999999" y="427.5" width="98.5" height="39" as="geometry" />
        </mxCell>
        <mxCell id="v58KR91fX-0rc_-lzw3H-234" value="Change Password" style="shape=ellipse;" vertex="1" parent="1">
          <mxGeometry x="1292.999999999999" y="409.92999999999984" width="130" height="47.25" as="geometry" />
        </mxCell>
        <mxCell id="v58KR91fX-0rc_-lzw3H-235" value="View sent requests" style="shape=ellipse;" vertex="1" parent="1">
          <mxGeometry x="1268.999999999999" y="511.93000000000006" width="133" height="49" as="geometry" />
        </mxCell>
        <mxCell id="v58KR91fX-0rc_-lzw3H-236" value="Track gift delivery status" style="shape=ellipse;" vertex="1" parent="1">
          <mxGeometry x="1168.999999999999" y="731.1800000000001" width="150" height="49" as="geometry" />
        </mxCell>
        <mxCell id="v58KR91fX-0rc_-lzw3H-237" value="Receive messages from other users" style="shape=ellipse;" vertex="1" parent="1">
          <mxGeometry x="1258.999999999999" y="584.9300000000001" width="220" height="61.5" as="geometry" />
        </mxCell>
        <mxCell id="v58KR91fX-0rc_-lzw3H-238" value="Change privacy settings" style="shape=ellipse;" vertex="1" parent="1">
          <mxGeometry x="1338.999999999999" y="672.6800000000001" width="160" height="49" as="geometry" />
        </mxCell>
        <mxCell id="v58KR91fX-0rc_-lzw3H-239" style="edgeStyle=orthogonalEdgeStyle;rounded=0;orthogonalLoop=1;jettySize=auto;html=1;exitX=0.5;exitY=1;exitDx=0;exitDy=0;" edge="1" parent="1" source="v58KR91fX-0rc_-lzw3H-238" target="v58KR91fX-0rc_-lzw3H-238">
          <mxGeometry relative="1" as="geometry" />
        </mxCell>
        <mxCell id="v58KR91fX-0rc_-lzw3H-240" value="Send messages to other users" style="shape=ellipse;" vertex="1" parent="1">
          <mxGeometry x="955.7499999999992" y="727" width="195" height="69" as="geometry" />
        </mxCell>
        <mxCell id="v58KR91fX-0rc_-lzw3H-241" value="Delete Account" style="shape=ellipse;" vertex="1" parent="1">
          <mxGeometry x="1063.3499999999992" y="400" width="123" height="51.5" as="geometry" />
        </mxCell>
        <mxCell id="v58KR91fX-0rc_-lzw3H-242" value="Add gift to favourites&#39;" style="shape=ellipse;" vertex="1" parent="1">
          <mxGeometry x="1506.249999999999" y="731.1800000000001" width="140" height="56.5" as="geometry" />
        </mxCell>
        <mxCell id="v58KR91fX-0rc_-lzw3H-243" value="Delete gift listings" style="shape=ellipse;" vertex="1" parent="1">
          <mxGeometry x="1122.999999999999" y="501.17999999999984" width="120" height="39" as="geometry" />
        </mxCell>
        <mxCell id="v58KR91fX-0rc_-lzw3H-244" value="" style="endArrow=none;html=1;rounded=0;" edge="1" parent="1" source="v58KR91fX-0rc_-lzw3H-225" target="v58KR91fX-0rc_-lzw3H-226">
          <mxGeometry relative="1" as="geometry">
            <mxPoint x="353" y="288" as="sourcePoint" />
            <mxPoint x="868" y="307" as="targetPoint" />
          </mxGeometry>
        </mxCell>
        <mxCell id="v58KR91fX-0rc_-lzw3H-245" value="*" style="resizable=0;html=1;whiteSpace=wrap;align=right;verticalAlign=bottom;" connectable="0" vertex="1" parent="v58KR91fX-0rc_-lzw3H-244">
          <mxGeometry x="1" relative="1" as="geometry" />
        </mxCell>
        <mxCell id="v58KR91fX-0rc_-lzw3H-246" value="" style="endArrow=none;html=1;rounded=0;" edge="1" parent="1" source="v58KR91fX-0rc_-lzw3H-225" target="v58KR91fX-0rc_-lzw3H-227">
          <mxGeometry relative="1" as="geometry">
            <mxPoint x="515.5" y="360" as="sourcePoint" />
            <mxPoint x="1030.5" y="379" as="targetPoint" />
          </mxGeometry>
        </mxCell>
        <mxCell id="v58KR91fX-0rc_-lzw3H-247" value="N" style="resizable=0;html=1;whiteSpace=wrap;align=right;verticalAlign=bottom;" connectable="0" vertex="1" parent="v58KR91fX-0rc_-lzw3H-246">
          <mxGeometry x="1" relative="1" as="geometry" />
        </mxCell>
        <mxCell id="v58KR91fX-0rc_-lzw3H-248" value="" style="endArrow=none;html=1;rounded=0;" edge="1" parent="1" source="v58KR91fX-0rc_-lzw3H-225" target="v58KR91fX-0rc_-lzw3H-228">
          <mxGeometry relative="1" as="geometry">
            <mxPoint x="679" y="340" as="sourcePoint" />
            <mxPoint x="1194" y="359" as="targetPoint" />
          </mxGeometry>
        </mxCell>
        <mxCell id="v58KR91fX-0rc_-lzw3H-249" value="N" style="resizable=0;html=1;whiteSpace=wrap;align=right;verticalAlign=bottom;" connectable="0" vertex="1" parent="v58KR91fX-0rc_-lzw3H-248">
          <mxGeometry x="1" relative="1" as="geometry" />
        </mxCell>
        <mxCell id="v58KR91fX-0rc_-lzw3H-250" value="*" style="text;html=1;align=center;verticalAlign=middle;resizable=0;points=[];autosize=1;strokeColor=none;fillColor=none;" vertex="1" parent="1">
          <mxGeometry x="493" y="530" width="30" height="30" as="geometry" />
        </mxCell>
        <mxCell id="v58KR91fX-0rc_-lzw3H-251" value="" style="endArrow=none;html=1;rounded=0;entryX=0;entryY=0.5;entryDx=0;entryDy=0;" edge="1" parent="1" source="v58KR91fX-0rc_-lzw3H-225" target="v58KR91fX-0rc_-lzw3H-243">
          <mxGeometry relative="1" as="geometry">
            <mxPoint x="383" y="318" as="sourcePoint" />
            <mxPoint x="898" y="337" as="targetPoint" />
          </mxGeometry>
        </mxCell>
        <mxCell id="v58KR91fX-0rc_-lzw3H-252" value="N" style="resizable=0;html=1;whiteSpace=wrap;align=right;verticalAlign=bottom;" connectable="0" vertex="1" parent="v58KR91fX-0rc_-lzw3H-251">
          <mxGeometry x="1" relative="1" as="geometry" />
        </mxCell>
        <mxCell id="v58KR91fX-0rc_-lzw3H-253" value="" style="endArrow=none;html=1;rounded=0;" edge="1" parent="1" source="v58KR91fX-0rc_-lzw3H-225" target="v58KR91fX-0rc_-lzw3H-229">
          <mxGeometry relative="1" as="geometry">
            <mxPoint x="393" y="328" as="sourcePoint" />
            <mxPoint x="908" y="347" as="targetPoint" />
          </mxGeometry>
        </mxCell>
        <mxCell id="v58KR91fX-0rc_-lzw3H-254" value="*" style="resizable=0;html=1;whiteSpace=wrap;align=right;verticalAlign=bottom;" connectable="0" vertex="1" parent="v58KR91fX-0rc_-lzw3H-253">
          <mxGeometry x="1" relative="1" as="geometry" />
        </mxCell>
        <mxCell id="v58KR91fX-0rc_-lzw3H-255" value="" style="endArrow=none;html=1;rounded=0;entryX=0;entryY=0.5;entryDx=0;entryDy=0;" edge="1" parent="1" source="v58KR91fX-0rc_-lzw3H-225" target="v58KR91fX-0rc_-lzw3H-230">
          <mxGeometry relative="1" as="geometry">
            <mxPoint x="403" y="338" as="sourcePoint" />
            <mxPoint x="918" y="357" as="targetPoint" />
          </mxGeometry>
        </mxCell>
        <mxCell id="v58KR91fX-0rc_-lzw3H-256" value="*" style="resizable=0;html=1;whiteSpace=wrap;align=right;verticalAlign=bottom;" connectable="0" vertex="1" parent="v58KR91fX-0rc_-lzw3H-255">
          <mxGeometry x="1" relative="1" as="geometry">
            <mxPoint x="26" as="offset" />
          </mxGeometry>
        </mxCell>
        <mxCell id="v58KR91fX-0rc_-lzw3H-257" value="" style="endArrow=none;html=1;rounded=0;entryX=0;entryY=0.5;entryDx=0;entryDy=0;" edge="1" parent="1" source="v58KR91fX-0rc_-lzw3H-225" target="v58KR91fX-0rc_-lzw3H-231">
          <mxGeometry relative="1" as="geometry">
            <mxPoint x="413" y="348" as="sourcePoint" />
            <mxPoint x="928" y="367" as="targetPoint" />
          </mxGeometry>
        </mxCell>
        <mxCell id="v58KR91fX-0rc_-lzw3H-258" value="*" style="resizable=0;html=1;whiteSpace=wrap;align=right;verticalAlign=bottom;" connectable="0" vertex="1" parent="v58KR91fX-0rc_-lzw3H-257">
          <mxGeometry x="1" relative="1" as="geometry" />
        </mxCell>
        <mxCell id="v58KR91fX-0rc_-lzw3H-259" value="" style="endArrow=none;html=1;rounded=0;" edge="1" parent="1" source="v58KR91fX-0rc_-lzw3H-225" target="v58KR91fX-0rc_-lzw3H-232">
          <mxGeometry relative="1" as="geometry">
            <mxPoint x="423" y="358" as="sourcePoint" />
            <mxPoint x="938" y="377" as="targetPoint" />
          </mxGeometry>
        </mxCell>
        <mxCell id="v58KR91fX-0rc_-lzw3H-260" value="*" style="resizable=0;html=1;whiteSpace=wrap;align=right;verticalAlign=bottom;" connectable="0" vertex="1" parent="v58KR91fX-0rc_-lzw3H-259">
          <mxGeometry x="1" relative="1" as="geometry" />
        </mxCell>
        <mxCell id="v58KR91fX-0rc_-lzw3H-261" value="" style="endArrow=none;html=1;rounded=0;entryX=0;entryY=0.5;entryDx=0;entryDy=0;" edge="1" parent="1" source="v58KR91fX-0rc_-lzw3H-225" target="v58KR91fX-0rc_-lzw3H-233">
          <mxGeometry relative="1" as="geometry">
            <mxPoint x="433" y="368" as="sourcePoint" />
            <mxPoint x="948" y="387" as="targetPoint" />
          </mxGeometry>
        </mxCell>
        <mxCell id="v58KR91fX-0rc_-lzw3H-262" value="1" style="resizable=0;html=1;whiteSpace=wrap;align=right;verticalAlign=bottom;" connectable="0" vertex="1" parent="v58KR91fX-0rc_-lzw3H-261">
          <mxGeometry x="1" relative="1" as="geometry" />
        </mxCell>
        <mxCell id="v58KR91fX-0rc_-lzw3H-263" value="" style="endArrow=none;html=1;rounded=0;entryX=0;entryY=0.5;entryDx=0;entryDy=0;" edge="1" parent="1" source="v58KR91fX-0rc_-lzw3H-225" target="v58KR91fX-0rc_-lzw3H-234">
          <mxGeometry relative="1" as="geometry">
            <mxPoint x="443" y="378" as="sourcePoint" />
            <mxPoint x="958" y="397" as="targetPoint" />
          </mxGeometry>
        </mxCell>
        <mxCell id="v58KR91fX-0rc_-lzw3H-264" value="1" style="resizable=0;html=1;whiteSpace=wrap;align=right;verticalAlign=bottom;" connectable="0" vertex="1" parent="v58KR91fX-0rc_-lzw3H-263">
          <mxGeometry x="1" relative="1" as="geometry" />
        </mxCell>
        <mxCell id="v58KR91fX-0rc_-lzw3H-265" value="" style="endArrow=none;html=1;rounded=0;entryX=0;entryY=0.5;entryDx=0;entryDy=0;" edge="1" parent="1" source="v58KR91fX-0rc_-lzw3H-225" target="v58KR91fX-0rc_-lzw3H-282">
          <mxGeometry relative="1" as="geometry">
            <mxPoint x="503" y="496" as="sourcePoint" />
            <mxPoint x="653" y="400" as="targetPoint" />
          </mxGeometry>
        </mxCell>
        <mxCell id="v58KR91fX-0rc_-lzw3H-266" value="*" style="resizable=0;html=1;whiteSpace=wrap;align=right;verticalAlign=bottom;" connectable="0" vertex="1" parent="v58KR91fX-0rc_-lzw3H-265">
          <mxGeometry x="1" relative="1" as="geometry" />
        </mxCell>
        <mxCell id="v58KR91fX-0rc_-lzw3H-267" value="" style="endArrow=none;html=1;rounded=0;" edge="1" parent="1" source="v58KR91fX-0rc_-lzw3H-225" target="v58KR91fX-0rc_-lzw3H-235">
          <mxGeometry relative="1" as="geometry">
            <mxPoint x="513" y="506" as="sourcePoint" />
            <mxPoint x="663" y="410" as="targetPoint" />
          </mxGeometry>
        </mxCell>
        <mxCell id="v58KR91fX-0rc_-lzw3H-268" value="*" style="resizable=0;html=1;whiteSpace=wrap;align=right;verticalAlign=bottom;" connectable="0" vertex="1" parent="v58KR91fX-0rc_-lzw3H-267">
          <mxGeometry x="1" relative="1" as="geometry" />
        </mxCell>
        <mxCell id="v58KR91fX-0rc_-lzw3H-269" value="" style="endArrow=none;html=1;rounded=0;" edge="1" parent="1" source="v58KR91fX-0rc_-lzw3H-225" target="v58KR91fX-0rc_-lzw3H-236">
          <mxGeometry relative="1" as="geometry">
            <mxPoint x="523" y="516" as="sourcePoint" />
            <mxPoint x="673" y="420" as="targetPoint" />
          </mxGeometry>
        </mxCell>
        <mxCell id="v58KR91fX-0rc_-lzw3H-270" value="*" style="resizable=0;html=1;whiteSpace=wrap;align=right;verticalAlign=bottom;" connectable="0" vertex="1" parent="v58KR91fX-0rc_-lzw3H-269">
          <mxGeometry x="1" relative="1" as="geometry" />
        </mxCell>
        <mxCell id="v58KR91fX-0rc_-lzw3H-271" value="" style="endArrow=none;html=1;rounded=0;" edge="1" parent="1" source="v58KR91fX-0rc_-lzw3H-225" target="v58KR91fX-0rc_-lzw3H-237">
          <mxGeometry relative="1" as="geometry">
            <mxPoint x="533" y="526" as="sourcePoint" />
            <mxPoint x="683" y="430" as="targetPoint" />
          </mxGeometry>
        </mxCell>
        <mxCell id="v58KR91fX-0rc_-lzw3H-272" value="*" style="resizable=0;html=1;whiteSpace=wrap;align=right;verticalAlign=bottom;" connectable="0" vertex="1" parent="v58KR91fX-0rc_-lzw3H-271">
          <mxGeometry x="1" relative="1" as="geometry" />
        </mxCell>
        <mxCell id="v58KR91fX-0rc_-lzw3H-273" value="" style="endArrow=none;html=1;rounded=0;" edge="1" parent="1" source="v58KR91fX-0rc_-lzw3H-225" target="v58KR91fX-0rc_-lzw3H-238">
          <mxGeometry relative="1" as="geometry">
            <mxPoint x="543" y="536" as="sourcePoint" />
            <mxPoint x="693" y="440" as="targetPoint" />
          </mxGeometry>
        </mxCell>
        <mxCell id="v58KR91fX-0rc_-lzw3H-274" value="*" style="resizable=0;html=1;whiteSpace=wrap;align=right;verticalAlign=bottom;" connectable="0" vertex="1" parent="v58KR91fX-0rc_-lzw3H-273">
          <mxGeometry x="1" relative="1" as="geometry" />
        </mxCell>
        <mxCell id="v58KR91fX-0rc_-lzw3H-275" value="" style="endArrow=none;html=1;rounded=0;" edge="1" parent="1" source="v58KR91fX-0rc_-lzw3H-225" target="v58KR91fX-0rc_-lzw3H-240">
          <mxGeometry relative="1" as="geometry">
            <mxPoint x="553" y="546" as="sourcePoint" />
            <mxPoint x="703" y="450" as="targetPoint" />
          </mxGeometry>
        </mxCell>
        <mxCell id="v58KR91fX-0rc_-lzw3H-276" value="*" style="resizable=0;html=1;whiteSpace=wrap;align=right;verticalAlign=bottom;" connectable="0" vertex="1" parent="v58KR91fX-0rc_-lzw3H-275">
          <mxGeometry x="1" relative="1" as="geometry" />
        </mxCell>
        <mxCell id="v58KR91fX-0rc_-lzw3H-277" value="" style="endArrow=none;html=1;rounded=0;entryX=0;entryY=0.5;entryDx=0;entryDy=0;" edge="1" parent="1" source="v58KR91fX-0rc_-lzw3H-225" target="v58KR91fX-0rc_-lzw3H-241">
          <mxGeometry relative="1" as="geometry">
            <mxPoint x="563" y="674" as="sourcePoint" />
            <mxPoint x="713" y="578" as="targetPoint" />
          </mxGeometry>
        </mxCell>
        <mxCell id="v58KR91fX-0rc_-lzw3H-278" value="1" style="resizable=0;html=1;whiteSpace=wrap;align=right;verticalAlign=bottom;" connectable="0" vertex="1" parent="v58KR91fX-0rc_-lzw3H-277">
          <mxGeometry x="1" relative="1" as="geometry" />
        </mxCell>
        <mxCell id="v58KR91fX-0rc_-lzw3H-279" value="" style="endArrow=none;html=1;rounded=0;" edge="1" parent="1" source="v58KR91fX-0rc_-lzw3H-225" target="v58KR91fX-0rc_-lzw3H-242">
          <mxGeometry relative="1" as="geometry">
            <mxPoint x="573" y="566" as="sourcePoint" />
            <mxPoint x="723" y="470" as="targetPoint" />
          </mxGeometry>
        </mxCell>
        <mxCell id="v58KR91fX-0rc_-lzw3H-280" value="N" style="resizable=0;html=1;whiteSpace=wrap;align=right;verticalAlign=bottom;" connectable="0" vertex="1" parent="v58KR91fX-0rc_-lzw3H-279">
          <mxGeometry x="1" relative="1" as="geometry" />
        </mxCell>
        <mxCell id="v58KR91fX-0rc_-lzw3H-281" value="" style="endArrow=none;html=1;rounded=0;entryX=0;entryY=0.5;entryDx=0;entryDy=0;" edge="1" parent="1" source="v58KR91fX-0rc_-lzw3H-225" target="v58KR91fX-0rc_-lzw3H-282">
          <mxGeometry relative="1" as="geometry">
            <mxPoint x="493" y="497" as="sourcePoint" />
            <mxPoint x="1523" y="599" as="targetPoint" />
          </mxGeometry>
        </mxCell>
        <mxCell id="v58KR91fX-0rc_-lzw3H-282" value="View a group" style="shape=ellipse;" vertex="1" parent="1">
          <mxGeometry x="1139" y="688" width="120" height="39" as="geometry" />
        </mxCell>
        <mxCell id="v58KR91fX-0rc_-lzw3H-283" value="&amp;lt;&amp;lt;include&amp;gt;&amp;gt;" style="endArrow=open;startArrow=none;endFill=0;startFill=0;endSize=8;html=1;verticalAlign=bottom;dashed=1;labelBackgroundColor=none;rounded=0;exitX=1;exitY=0.5;exitDx=0;exitDy=0;entryX=0.5;entryY=1;entryDx=0;entryDy=0;" edge="1" parent="1" source="v58KR91fX-0rc_-lzw3H-227" target="v58KR91fX-0rc_-lzw3H-240">
          <mxGeometry width="160" relative="1" as="geometry">
            <mxPoint x="1094.999999999999" y="988.1799999999998" as="sourcePoint" />
            <mxPoint x="868.9999999999992" y="731.1799999999998" as="targetPoint" />
          </mxGeometry>
        </mxCell>
        <mxCell id="v58KR91fX-0rc_-lzw3H-287" value="" style="shape=folder;fontStyle=1;spacingTop=10;tabWidth=180;tabHeight=40;tabPosition=left;html=1;whiteSpace=wrap;" vertex="1" parent="1">
          <mxGeometry x="840" y="1110" width="900" height="790" as="geometry" />
        </mxCell>
        <mxCell id="v58KR91fX-0rc_-lzw3H-288" value="" style="shape=umlActor;verticalLabelPosition=bottom;verticalAlign=top;html=1;outlineConnect=0;" vertex="1" parent="1">
          <mxGeometry x="610" y="1390.5" width="30" height="59" as="geometry" />
        </mxCell>
        <mxCell id="v58KR91fX-0rc_-lzw3H-289" value="" style="endArrow=none;html=1;rounded=0;entryX=0;entryY=0.5;entryDx=0;entryDy=0;" edge="1" parent="1" source="v58KR91fX-0rc_-lzw3H-288" target="v58KR91fX-0rc_-lzw3H-300">
          <mxGeometry relative="1" as="geometry">
            <mxPoint x="676" y="1430.5" as="sourcePoint" />
            <mxPoint x="931" y="1299.5" as="targetPoint" />
          </mxGeometry>
        </mxCell>
        <mxCell id="v58KR91fX-0rc_-lzw3H-290" value="*" style="resizable=0;html=1;whiteSpace=wrap;align=right;verticalAlign=bottom;" connectable="0" vertex="1" parent="v58KR91fX-0rc_-lzw3H-289">
          <mxGeometry x="1" relative="1" as="geometry" />
        </mxCell>
        <mxCell id="v58KR91fX-0rc_-lzw3H-291" value="*" style="text;html=1;align=center;verticalAlign=middle;resizable=0;points=[];autosize=1;strokeColor=none;fillColor=none;" vertex="1" parent="1">
          <mxGeometry x="635" y="1388.5" width="30" height="30" as="geometry" />
        </mxCell>
        <mxCell id="v58KR91fX-0rc_-lzw3H-292" value="Contact support" style="shape=ellipse;" vertex="1" parent="1">
          <mxGeometry x="1230" y="1246.5" width="120" height="39" as="geometry" />
        </mxCell>
        <mxCell id="v58KR91fX-0rc_-lzw3H-293" value="N...." style="text;html=1;align=center;verticalAlign=middle;resizable=0;points=[];autosize=1;strokeColor=none;fillColor=none;" vertex="1" parent="1">
          <mxGeometry x="1170.75" y="1246.5" width="50" height="30" as="geometry" />
        </mxCell>
        <mxCell id="v58KR91fX-0rc_-lzw3H-294" value="View testimonials" style="shape=ellipse;" vertex="1" parent="1">
          <mxGeometry x="1480.75" y="1440.5" width="130" height="49" as="geometry" />
        </mxCell>
        <mxCell id="v58KR91fX-0rc_-lzw3H-295" value="View FAQ section" style="shape=ellipse;" vertex="1" parent="1">
          <mxGeometry x="1316" y="1351.5" width="130" height="49" as="geometry" />
        </mxCell>
        <mxCell id="v58KR91fX-0rc_-lzw3H-296" value="View &#39;About Us&#39; page" style="shape=ellipse;" vertex="1" parent="1">
          <mxGeometry x="1510.75" y="1370.5" width="150" height="49" as="geometry" />
        </mxCell>
        <mxCell id="v58KR91fX-0rc_-lzw3H-297" value="Report inappropriate content" style="shape=ellipse;" vertex="1" parent="1">
          <mxGeometry x="1500" y="1217.5" width="180" height="59" as="geometry" />
        </mxCell>
        <mxCell id="v58KR91fX-0rc_-lzw3H-298" value="Search for specific Category" style="shape=ellipse;" vertex="1" parent="1">
          <mxGeometry x="1470.75" y="1310.5" width="184.25" height="50" as="geometry" />
        </mxCell>
        <mxCell id="v58KR91fX-0rc_-lzw3H-299" value="View item details" style="shape=ellipse;" vertex="1" parent="1">
          <mxGeometry x="1360.75" y="1276.5" width="120" height="39" as="geometry" />
        </mxCell>
        <mxCell id="v58KR91fX-0rc_-lzw3H-300" value="Browse available gifts" style="shape=ellipse;" vertex="1" parent="1">
          <mxGeometry x="898.25" y="1250.5" width="190" height="49" as="geometry" />
        </mxCell>
        <mxCell id="v58KR91fX-0rc_-lzw3H-301" value="Search for specific items" style="shape=ellipse;" vertex="1" parent="1">
          <mxGeometry x="1191.75" y="1400.5" width="150" height="49" as="geometry" />
        </mxCell>
        <mxCell id="v58KR91fX-0rc_-lzw3H-302" value="" style="endArrow=none;html=1;rounded=0;entryX=0;entryY=0.5;entryDx=0;entryDy=0;" edge="1" parent="1" source="v58KR91fX-0rc_-lzw3H-288" target="v58KR91fX-0rc_-lzw3H-297">
          <mxGeometry relative="1" as="geometry">
            <mxPoint x="700" y="1479.5" as="sourcePoint" />
            <mxPoint x="915" y="1428.5" as="targetPoint" />
          </mxGeometry>
        </mxCell>
        <mxCell id="v58KR91fX-0rc_-lzw3H-303" value="*" style="resizable=0;html=1;whiteSpace=wrap;align=right;verticalAlign=bottom;" connectable="0" vertex="1" parent="v58KR91fX-0rc_-lzw3H-302">
          <mxGeometry x="1" relative="1" as="geometry" />
        </mxCell>
        <mxCell id="v58KR91fX-0rc_-lzw3H-304" value="" style="endArrow=none;html=1;rounded=0;entryX=0;entryY=0.5;entryDx=0;entryDy=0;" edge="1" parent="1" source="v58KR91fX-0rc_-lzw3H-288" target="v58KR91fX-0rc_-lzw3H-301">
          <mxGeometry relative="1" as="geometry">
            <mxPoint x="660" y="1436.5" as="sourcePoint" />
            <mxPoint x="875" y="1385.5" as="targetPoint" />
          </mxGeometry>
        </mxCell>
        <mxCell id="v58KR91fX-0rc_-lzw3H-305" value="*" style="resizable=0;html=1;whiteSpace=wrap;align=right;verticalAlign=bottom;" connectable="0" vertex="1" parent="v58KR91fX-0rc_-lzw3H-304">
          <mxGeometry x="1" relative="1" as="geometry" />
        </mxCell>
        <mxCell id="v58KR91fX-0rc_-lzw3H-306" value="" style="endArrow=none;html=1;rounded=0;entryX=0;entryY=0.5;entryDx=0;entryDy=0;" edge="1" parent="1" source="v58KR91fX-0rc_-lzw3H-288" target="v58KR91fX-0rc_-lzw3H-294">
          <mxGeometry relative="1" as="geometry">
            <mxPoint x="670" y="1446.5" as="sourcePoint" />
            <mxPoint x="885" y="1395.5" as="targetPoint" />
          </mxGeometry>
        </mxCell>
        <mxCell id="v58KR91fX-0rc_-lzw3H-307" value="*" style="resizable=0;html=1;whiteSpace=wrap;align=right;verticalAlign=bottom;" connectable="0" vertex="1" parent="v58KR91fX-0rc_-lzw3H-306">
          <mxGeometry x="1" relative="1" as="geometry" />
        </mxCell>
        <mxCell id="v58KR91fX-0rc_-lzw3H-308" value="" style="endArrow=none;html=1;rounded=0;entryX=0;entryY=0.5;entryDx=0;entryDy=0;" edge="1" parent="1" source="v58KR91fX-0rc_-lzw3H-288" target="v58KR91fX-0rc_-lzw3H-292">
          <mxGeometry relative="1" as="geometry">
            <mxPoint x="680" y="1456.5" as="sourcePoint" />
            <mxPoint x="895" y="1405.5" as="targetPoint" />
          </mxGeometry>
        </mxCell>
        <mxCell id="v58KR91fX-0rc_-lzw3H-309" value="*" style="resizable=0;html=1;whiteSpace=wrap;align=right;verticalAlign=bottom;" connectable="0" vertex="1" parent="v58KR91fX-0rc_-lzw3H-308">
          <mxGeometry x="1" relative="1" as="geometry" />
        </mxCell>
        <mxCell id="v58KR91fX-0rc_-lzw3H-310" value="" style="endArrow=none;html=1;rounded=0;entryX=0;entryY=0.5;entryDx=0;entryDy=0;" edge="1" parent="1" source="v58KR91fX-0rc_-lzw3H-288" target="v58KR91fX-0rc_-lzw3H-295">
          <mxGeometry relative="1" as="geometry">
            <mxPoint x="690" y="1466.5" as="sourcePoint" />
            <mxPoint x="905" y="1415.5" as="targetPoint" />
          </mxGeometry>
        </mxCell>
        <mxCell id="v58KR91fX-0rc_-lzw3H-311" value="*" style="resizable=0;html=1;whiteSpace=wrap;align=right;verticalAlign=bottom;" connectable="0" vertex="1" parent="v58KR91fX-0rc_-lzw3H-310">
          <mxGeometry x="1" relative="1" as="geometry" />
        </mxCell>
        <mxCell id="v58KR91fX-0rc_-lzw3H-312" value="" style="endArrow=none;html=1;rounded=0;entryX=0;entryY=0.5;entryDx=0;entryDy=0;" edge="1" parent="1" source="v58KR91fX-0rc_-lzw3H-288" target="v58KR91fX-0rc_-lzw3H-299">
          <mxGeometry relative="1" as="geometry">
            <mxPoint x="700" y="1476.5" as="sourcePoint" />
            <mxPoint x="915" y="1425.5" as="targetPoint" />
          </mxGeometry>
        </mxCell>
        <mxCell id="v58KR91fX-0rc_-lzw3H-313" value="*" style="resizable=0;html=1;whiteSpace=wrap;align=right;verticalAlign=bottom;" connectable="0" vertex="1" parent="v58KR91fX-0rc_-lzw3H-312">
          <mxGeometry x="1" relative="1" as="geometry" />
        </mxCell>
        <mxCell id="v58KR91fX-0rc_-lzw3H-314" value="" style="endArrow=none;html=1;rounded=0;entryX=0;entryY=0.5;entryDx=0;entryDy=0;" edge="1" parent="1" source="v58KR91fX-0rc_-lzw3H-288" target="v58KR91fX-0rc_-lzw3H-296">
          <mxGeometry relative="1" as="geometry">
            <mxPoint x="710" y="1486.5" as="sourcePoint" />
            <mxPoint x="925" y="1435.5" as="targetPoint" />
          </mxGeometry>
        </mxCell>
        <mxCell id="v58KR91fX-0rc_-lzw3H-315" value="*" style="resizable=0;html=1;whiteSpace=wrap;align=right;verticalAlign=bottom;" connectable="0" vertex="1" parent="v58KR91fX-0rc_-lzw3H-314">
          <mxGeometry x="1" relative="1" as="geometry" />
        </mxCell>
        <mxCell id="v58KR91fX-0rc_-lzw3H-316" value="" style="endArrow=none;html=1;rounded=0;entryX=0;entryY=0.5;entryDx=0;entryDy=0;" edge="1" parent="1" source="v58KR91fX-0rc_-lzw3H-288" target="v58KR91fX-0rc_-lzw3H-298">
          <mxGeometry relative="1" as="geometry">
            <mxPoint x="720" y="1496.5" as="sourcePoint" />
            <mxPoint x="935" y="1445.5" as="targetPoint" />
          </mxGeometry>
        </mxCell>
        <mxCell id="v58KR91fX-0rc_-lzw3H-317" value="*" style="resizable=0;html=1;whiteSpace=wrap;align=right;verticalAlign=bottom;" connectable="0" vertex="1" parent="v58KR91fX-0rc_-lzw3H-316">
          <mxGeometry x="1" relative="1" as="geometry" />
        </mxCell>
        <mxCell id="v58KR91fX-0rc_-lzw3H-330" value="&lt;span style=&quot;font-size: 24px;&quot;&gt;Administrator&lt;/span&gt;" style="text;html=1;align=center;verticalAlign=middle;resizable=0;points=[];autosize=1;strokeColor=none;fillColor=none;" vertex="1" parent="1">
          <mxGeometry x="845" y="1110" width="160" height="40" as="geometry" />
        </mxCell>
        <mxCell id="v58KR91fX-0rc_-lzw3H-337" value="Track Analytics" style="shape=ellipse;" vertex="1" parent="1">
          <mxGeometry x="1374" y="1669" width="130" height="49" as="geometry" />
        </mxCell>
        <mxCell id="v58KR91fX-0rc_-lzw3H-338" value="Create a new group" style="shape=ellipse;" vertex="1" parent="1">
          <mxGeometry x="1204" y="1579" width="134.75" height="49" as="geometry" />
        </mxCell>
        <mxCell id="v58KR91fX-0rc_-lzw3H-339" value="View group details" style="shape=ellipse;" vertex="1" parent="1">
          <mxGeometry x="1027.5" y="1569" width="124.75" height="59" as="geometry" />
        </mxCell>
        <mxCell id="v58KR91fX-0rc_-lzw3H-340" value="Manage users accounts" style="shape=ellipse;" vertex="1" parent="1">
          <mxGeometry x="1520" y="1718" width="160" height="54" as="geometry" />
        </mxCell>
        <mxCell id="v58KR91fX-0rc_-lzw3H-341" value="Approve or reject gift listings" style="shape=ellipse;" vertex="1" parent="1">
          <mxGeometry x="1332.25" y="1599" width="180" height="64" as="geometry" />
        </mxCell>
        <mxCell id="v58KR91fX-0rc_-lzw3H-342" value="Monitor Bug Reports" style="shape=ellipse;" vertex="1" parent="1">
          <mxGeometry x="1194" y="1717" width="127.75" height="55" as="geometry" />
        </mxCell>
        <mxCell id="v58KR91fX-0rc_-lzw3H-343" value="Handle reported content" style="shape=ellipse;" vertex="1" parent="1">
          <mxGeometry x="874" y="1550" width="150" height="49" as="geometry" />
        </mxCell>
        <mxCell id="v58KR91fX-0rc_-lzw3H-344" value="Configure site settings" style="shape=ellipse;" vertex="1" parent="1">
          <mxGeometry x="962.25" y="1729" width="130" height="49" as="geometry" />
        </mxCell>
        <mxCell id="v58KR91fX-0rc_-lzw3H-345" value="Admin" style="shape=umlActor;verticalLabelPosition=bottom;verticalAlign=top;html=1;outlineConnect=0;" vertex="1" parent="1">
          <mxGeometry x="610" y="1388.5" width="30" height="59" as="geometry" />
        </mxCell>
        <mxCell id="v58KR91fX-0rc_-lzw3H-346" value="" style="endArrow=none;html=1;rounded=0;" edge="1" parent="1" source="v58KR91fX-0rc_-lzw3H-345" target="v58KR91fX-0rc_-lzw3H-343">
          <mxGeometry relative="1" as="geometry">
            <mxPoint x="726" y="1210" as="sourcePoint" />
            <mxPoint x="894" y="1390" as="targetPoint" />
          </mxGeometry>
        </mxCell>
        <mxCell id="v58KR91fX-0rc_-lzw3H-347" value="N" style="resizable=0;html=1;whiteSpace=wrap;align=right;verticalAlign=bottom;" connectable="0" vertex="1" parent="v58KR91fX-0rc_-lzw3H-346">
          <mxGeometry x="1" relative="1" as="geometry" />
        </mxCell>
        <mxCell id="v58KR91fX-0rc_-lzw3H-348" value="" style="endArrow=none;html=1;rounded=0;entryX=0;entryY=0.5;entryDx=0;entryDy=0;" edge="1" parent="1" source="v58KR91fX-0rc_-lzw3H-345" target="v58KR91fX-0rc_-lzw3H-339">
          <mxGeometry relative="1" as="geometry">
            <mxPoint x="726" y="1676" as="sourcePoint" />
            <mxPoint x="924" y="1649" as="targetPoint" />
          </mxGeometry>
        </mxCell>
        <mxCell id="v58KR91fX-0rc_-lzw3H-349" value="N" style="resizable=0;html=1;whiteSpace=wrap;align=right;verticalAlign=bottom;" connectable="0" vertex="1" parent="v58KR91fX-0rc_-lzw3H-348">
          <mxGeometry x="1" relative="1" as="geometry" />
        </mxCell>
        <mxCell id="v58KR91fX-0rc_-lzw3H-350" value="" style="endArrow=none;html=1;rounded=0;" edge="1" parent="1" source="v58KR91fX-0rc_-lzw3H-345" target="v58KR91fX-0rc_-lzw3H-344">
          <mxGeometry relative="1" as="geometry">
            <mxPoint x="726" y="1677" as="sourcePoint" />
            <mxPoint x="1104" y="1629" as="targetPoint" />
          </mxGeometry>
        </mxCell>
        <mxCell id="v58KR91fX-0rc_-lzw3H-351" value="*" style="resizable=0;html=1;whiteSpace=wrap;align=right;verticalAlign=bottom;" connectable="0" vertex="1" parent="v58KR91fX-0rc_-lzw3H-350">
          <mxGeometry x="1" relative="1" as="geometry" />
        </mxCell>
        <mxCell id="v58KR91fX-0rc_-lzw3H-352" value="" style="endArrow=none;html=1;rounded=0;" edge="1" parent="1" source="v58KR91fX-0rc_-lzw3H-345" target="v58KR91fX-0rc_-lzw3H-342">
          <mxGeometry relative="1" as="geometry">
            <mxPoint x="736" y="1687" as="sourcePoint" />
            <mxPoint x="1114" y="1639" as="targetPoint" />
          </mxGeometry>
        </mxCell>
        <mxCell id="v58KR91fX-0rc_-lzw3H-353" value="N" style="resizable=0;html=1;whiteSpace=wrap;align=right;verticalAlign=bottom;" connectable="0" vertex="1" parent="v58KR91fX-0rc_-lzw3H-352">
          <mxGeometry x="1" relative="1" as="geometry" />
        </mxCell>
        <mxCell id="v58KR91fX-0rc_-lzw3H-354" value="" style="endArrow=none;html=1;rounded=0;" edge="1" parent="1" source="v58KR91fX-0rc_-lzw3H-345" target="v58KR91fX-0rc_-lzw3H-338">
          <mxGeometry relative="1" as="geometry">
            <mxPoint x="746" y="1697" as="sourcePoint" />
            <mxPoint x="1124" y="1649" as="targetPoint" />
          </mxGeometry>
        </mxCell>
        <mxCell id="v58KR91fX-0rc_-lzw3H-355" value="N" style="resizable=0;html=1;whiteSpace=wrap;align=right;verticalAlign=bottom;" connectable="0" vertex="1" parent="v58KR91fX-0rc_-lzw3H-354">
          <mxGeometry x="1" relative="1" as="geometry" />
        </mxCell>
        <mxCell id="v58KR91fX-0rc_-lzw3H-356" value="" style="endArrow=none;html=1;rounded=0;" edge="1" parent="1" source="v58KR91fX-0rc_-lzw3H-345" target="v58KR91fX-0rc_-lzw3H-337">
          <mxGeometry relative="1" as="geometry">
            <mxPoint x="756" y="1707" as="sourcePoint" />
            <mxPoint x="1134" y="1659" as="targetPoint" />
          </mxGeometry>
        </mxCell>
        <mxCell id="v58KR91fX-0rc_-lzw3H-357" value="*" style="resizable=0;html=1;whiteSpace=wrap;align=right;verticalAlign=bottom;" connectable="0" vertex="1" parent="v58KR91fX-0rc_-lzw3H-356">
          <mxGeometry x="1" relative="1" as="geometry" />
        </mxCell>
        <mxCell id="v58KR91fX-0rc_-lzw3H-358" value="" style="endArrow=none;html=1;rounded=0;" edge="1" parent="1" source="v58KR91fX-0rc_-lzw3H-345" target="v58KR91fX-0rc_-lzw3H-341">
          <mxGeometry relative="1" as="geometry">
            <mxPoint x="766" y="1717" as="sourcePoint" />
            <mxPoint x="1144" y="1669" as="targetPoint" />
          </mxGeometry>
        </mxCell>
        <mxCell id="v58KR91fX-0rc_-lzw3H-359" value="N" style="resizable=0;html=1;whiteSpace=wrap;align=right;verticalAlign=bottom;" connectable="0" vertex="1" parent="v58KR91fX-0rc_-lzw3H-358">
          <mxGeometry x="1" relative="1" as="geometry" />
        </mxCell>
        <mxCell id="v58KR91fX-0rc_-lzw3H-360" value="" style="endArrow=none;html=1;rounded=0;" edge="1" parent="1" source="v58KR91fX-0rc_-lzw3H-345" target="v58KR91fX-0rc_-lzw3H-340">
          <mxGeometry relative="1" as="geometry">
            <mxPoint x="776" y="1727" as="sourcePoint" />
            <mxPoint x="1154" y="1679" as="targetPoint" />
          </mxGeometry>
        </mxCell>
        <mxCell id="v58KR91fX-0rc_-lzw3H-361" value="*" style="resizable=0;html=1;whiteSpace=wrap;align=right;verticalAlign=bottom;" connectable="0" vertex="1" parent="v58KR91fX-0rc_-lzw3H-360">
          <mxGeometry x="1" relative="1" as="geometry" />
        </mxCell>
      </root>
    </mxGraphModel>
  </diagram>
</mxfile>
